{
	"asset":{
		"generator":"Khronos glTF Blender I/O v3.5.30",
		"version":"2.0"
	},
	"scene":0,
	"scenes":[
		{
			"name":"Scene",
			"nodes":[
				0,
				1
			]
		}
	],
	"nodes":[
		{
			"mesh":0,
			"name":"Cylinder",
			"scale":[
				0.4845796227455139,
				0.4845796227455139,
				0.4845796227455139
			],
			"translation":[
				0.04824948310852051,
				0.9529167413711548,
				0.007166534662246704
			]
		},
		{
			"name":"Empty",
			"rotation":[
				0.5,
				0.5,
				-0.5,
				0.5
			],
			"translation":[
				0,
				2.53495717048645,
				0
			]
		}
	],
	"materials":[
		{
			"doubleSided":true,
			"name":"RocketColor",
			"pbrMetallicRoughness":{
				"baseColorFactor":[
					0.8000000715255737,
					0.021252036094665527,
					0.024135077372193336,
					1
				],
				"metallicFactor":0,
				"roughnessFactor":0.5
			}
		},
		{
			"doubleSided":true,
			"name":"RocketLegs",
			"pbrMetallicRoughness":{
				"baseColorFactor":[
					0.023386413231492043,
					0.2052844911813736,
					0.8000000715255737,
					1
				],
				"metallicFactor":0,
				"roughnessFactor":0.5
			}
		},
		{
			"doubleSided":true,
			"name":"Rocketstripe",
			"pbrMetallicRoughness":{
				"baseColorFactor":[
					0.8000000715255737,
					0.6496341824531555,
					0.014937403611838818,
					1
				],
				"metallicFactor":0,
				"roughnessFactor":0.5
			}
		},
		{
			"doubleSided":true,
			"name":"BlackStripe",
			"pbrMetallicRoughness":{
				"baseColorFactor":[
					0.008075692690908909,
					0.008075692690908909,
					0.008075692690908909,
					1
				],
				"metallicFactor":0,
				"roughnessFactor":0.5
			}
		}
	],
	"meshes":[
		{
			"name":"Cylinder.004",
			"primitives":[
				{
					"attributes":{
						"POSITION":0,
						"TEXCOORD_0":1,
						"NORMAL":2
					},
					"indices":3,
					"material":0
				},
				{
					"attributes":{
						"POSITION":4,
						"TEXCOORD_0":5,
						"NORMAL":6
					},
					"indices":7,
					"material":1
				},
				{
					"attributes":{
						"POSITION":8,
						"TEXCOORD_0":9,
						"NORMAL":10
					},
					"indices":11,
					"material":2
				},
				{
					"attributes":{
						"POSITION":12,
						"TEXCOORD_0":13,
						"NORMAL":14
					},
					"indices":15,
					"material":3
				}
			]
		}
	],
	"accessors":[
		{
			"bufferView":0,
			"componentType":5126,
			"count":472,
			"max":[
				1.3085395097732544,
				2.8916404247283936,
				1.308539628982544
			],
			"min":[
				-1.3085397481918335,
				-1.0200210809707642,
				-1.308539628982544
			],
			"type":"VEC3"
		},
		{
			"bufferView":1,
			"componentType":5126,
			"count":472,
			"type":"VEC2"
		},
		{
			"bufferView":2,
			"componentType":5126,
			"count":472,
			"type":"VEC3"
		},
		{
			"bufferView":3,
			"componentType":5123,
			"count":780,
			"type":"SCALAR"
		},
		{
			"bufferView":4,
			"componentType":5126,
			"count":224,
			"max":[
				1.5571165084838867,
				0.9062427282333374,
				1.5363402366638184
			],
			"min":[
				-1.5386465787887573,
				-1.4843716621398926,
				-1.5483959913253784
			],
			"type":"VEC3"
		},
		{
			"bufferView":5,
			"componentType":5126,
			"count":224,
			"type":"VEC2"
		},
		{
			"bufferView":6,
			"componentType":5126,
			"count":224,
			"type":"VEC3"
		},
		{
			"bufferView":7,
			"componentType":5123,
			"count":336,
			"type":"SCALAR"
		},
		{
			"bufferView":8,
			"componentType":5126,
			"count":560,
			"max":[
				1.254201889038086,
				3.9982457160949707,
				1.2542020082473755
			],
			"min":[
				-1.254202127456665,
				0.5403304100036621,
				-1.2542020082473755
			],
			"type":"VEC3"
		},
		{
			"bufferView":9,
			"componentType":5126,
			"count":560,
			"type":"VEC2"
		},
		{
			"bufferView":10,
			"componentType":5126,
			"count":560,
			"type":"VEC3"
		},
		{
			"bufferView":11,
			"componentType":5123,
			"count":840,
			"type":"SCALAR"
		},
		{
			"bufferView":12,
			"componentType":5126,
			"count":788,
			"max":[
				1.5062588453292847,
				4.161752700805664,
				1.4854824542999268
			],
			"min":[
				-1.4877889156341553,
				0.4404017925262451,
				-1.4975383281707764
			],
			"type":"VEC3"
		},
		{
			"bufferView":13,
			"componentType":5126,
			"count":788,
			"type":"VEC2"
		},
		{
			"bufferView":14,
			"componentType":5126,
			"count":788,
			"type":"VEC3"
		},
		{
			"bufferView":15,
			"componentType":5123,
			"count":1140,
			"type":"SCALAR"
		}
	],
	"bufferViews":[
		{
			"buffer":0,
			"byteLength":5664,
			"byteOffset":0,
			"target":34962
		},
		{
			"buffer":0,
			"byteLength":3776,
			"byteOffset":5664,
			"target":34962
		},
		{
			"buffer":0,
			"byteLength":5664,
			"byteOffset":9440,
			"target":34962
		},
		{
			"buffer":0,
			"byteLength":1560,
			"byteOffset":15104,
			"target":34963
		},
		{
			"buffer":0,
			"byteLength":2688,
			"byteOffset":16664,
			"target":34962
		},
		{
			"buffer":0,
			"byteLength":1792,
			"byteOffset":19352,
			"target":34962
		},
		{
			"buffer":0,
			"byteLength":2688,
			"byteOffset":21144,
			"target":34962
		},
		{
			"buffer":0,
			"byteLength":672,
			"byteOffset":23832,
			"target":34963
		},
		{
			"buffer":0,
			"byteLength":6720,
			"byteOffset":24504,
			"target":34962
		},
		{
			"buffer":0,
			"byteLength":4480,
			"byteOffset":31224,
			"target":34962
		},
		{
			"buffer":0,
			"byteLength":6720,
			"byteOffset":35704,
			"target":34962
		},
		{
			"buffer":0,
			"byteLength":1680,
			"byteOffset":42424,
			"target":34963
		},
		{
			"buffer":0,
			"byteLength":9456,
			"byteOffset":44104,
			"target":34962
		},
		{
			"buffer":0,
			"byteLength":6304,
			"byteOffset":53560,
			"target":34962
		},
		{
			"buffer":0,
			"byteLength":9456,
			"byteOffset":59864,
			"target":34962
		},
		{
			"buffer":0,
			"byteLength":2280,
			"byteOffset":69320,
			"target":34963
		}
	],
	"buffers":[
		{
			"byteLength":71600,
			"uri":"data:application/octet-stream;base64,"
		}
	]
}
